HIERARCHY
ROOT Hips
{
 OFFSET 0.000000 0.000000 0.000000
 CHANNELS 6 Xposition Yposition Zposition Yrotation Xrotation Zrotation
 JOINT Chest
 {
  OFFSET 0.000000 9.876139 0.000104
  CHANNELS 3 Yrotation Xrotation Zrotation
  JOINT Chest2
  {
   OFFSET 0.000000 10.876137 -0.000189
   CHANNELS 3 Yrotation Xrotation Zrotation
   JOINT Chest3
   {
    OFFSET 0.000000 9.827065 0.000000
    CHANNELS 3 Yrotation Xrotation Zrotation
    JOINT Chest4
    {
     OFFSET 0.000000 9.827065 0.000000
     CHANNELS 3 Yrotation Xrotation Zrotation
     JOINT Neck
     {
      OFFSET 0.000000 13.837564 0.000000
      CHANNELS 3 Yrotation Xrotation Zrotation
      JOINT Head
      {
       OFFSET 0.000000 9.147059 -0.000448
       CHANNELS 3 Yrotation Xrotation Zrotation
       End Site
       {
        OFFSET 0.000000 17.513050 -0.000234
       }
      }
     }
     JOINT RightCollar
     {
      OFFSET -3.007721 7.720841 0.000000
      CHANNELS 3 Yrotation Xrotation Zrotation
      JOINT RightShoulder
      {
       OFFSET -14.032560 0.000000 0.000000
       CHANNELS 3 Yrotation Xrotation Zrotation
       JOINT RightElbow
       {
        OFFSET -30.066962 0.000000 0.000000
        CHANNELS 3 Yrotation Xrotation Zrotation
        JOINT RightWrist
        {
         OFFSET -24.575761 0.000000 0.000000
         CHANNELS 3 Yrotation Xrotation Zrotation
         JOINT Prop1
         {
          OFFSET -3.508170 -1.002334 -2.004669
          CHANNELS 3 Yrotation Xrotation Zrotation
          End Site
          {
           OFFSET -75.170729 -33.091210 23.052389
          }
         }
         End Site
         {
          OFFSET -18.342718 0.000000 0.000000
         }
        }
       }
      }
     }
     JOINT LeftCollar
     {
      OFFSET 3.007721 7.720841 0.000000
      CHANNELS 3 Yrotation Xrotation Zrotation
      JOINT LeftShoulder
      {
       OFFSET 14.032560 0.000000 0.000000
       CHANNELS 3 Yrotation Xrotation Zrotation
       JOINT LeftElbow
       {
        OFFSET 30.066962 0.000000 0.000000
        CHANNELS 3 Yrotation Xrotation Zrotation
        JOINT LeftWrist
        {
         OFFSET 24.575761 0.000000 0.000000
         CHANNELS 3 Yrotation Xrotation Zrotation
         End Site
         {
          OFFSET 18.342718 0.000000 0.000000
         }
        }
       }
      }
     }
    }
   }
  }
 }
 JOINT RightHip
 {
  OFFSET -8.019680 -0.000509 -0.000052
  CHANNELS 3 Yrotation Xrotation Zrotation
  JOINT RightKnee
  {
   OFFSET 0.000000 -41.754945 0.000049
   CHANNELS 3 Yrotation Xrotation Zrotation
   JOINT RightAnkle
   {
    OFFSET 0.000000 -40.737371 0.000083
    CHANNELS 3 Yrotation Xrotation Zrotation
    JOINT RightToe
    {
     OFFSET 0.000000 -6.498123 14.692914
     CHANNELS 3 Yrotation Xrotation Zrotation
     End Site
     {
      OFFSET 0.000000 -1.503208 6.410318
     }
    }
   }
  }
 }
 JOINT LeftHip
 {
  OFFSET 8.019680 -0.000509 -0.000052
  CHANNELS 3 Yrotation Xrotation Zrotation
  JOINT LeftKnee
  {
   OFFSET 0.000000 -41.754945 0.000049
   CHANNELS 3 Yrotation Xrotation Zrotation
   JOINT LeftAnkle
   {
    OFFSET 0.000000 -40.737371 0.000083
    CHANNELS 3 Yrotation Xrotation Zrotation
    JOINT LeftToe
    {
     OFFSET 0.000000 -6.498123 14.692914
     CHANNELS 3 Yrotation Xrotation Zrotation
     End Site
     {
      OFFSET 0.000000 -1.503208 6.410318
     }
    }
   }
  }
 }
}
MOTION
Frames: 8
Frame Time: 0.016667
0.000000 88.808225 0.000000 0.000000 -5.826342 0.000000 0.000000 11.116423 0.000000 0.000000 -5.290081 0.000000 0.000000 0.000000 0.000000 0.000000 0.000000 0.000000 0.000000 12.665069 0.000000 0.000000 0.575450 0.000000 0.000000 0.000000 0.000000 0.000000 0.000000 0.000000 2.337306 0.000000 0.000000 -2.337306 0.000000 0.000000 0.000000 0.000000 0.000000 0.000000 0.000000 0.000000 0.000000 0.000000 0.000000 -2.337306 0.000000 0.000000 2.337306 0.000000 0.000000 0.000000 8.578828 0.000000 0.000000 1.905768 0.000000 0.000000 -4.658254 0.000000 0.000000 0.000000 0.000000 0.000000 8.578828 0.000000 0.000000 1.905768 0.000000 0.000000 -4.658254 0.000000 0.000000 0.000000 0.000000
-18.049418 90.084244 -11.154755 178.297840 -18.332895 -2.297539 -4.427209 10.460020 0.953037 -1.982096 4.622177 0.475058 -1.982096 4.622177 0.475058 -1.489365 3.465139 0.371124 -4.086811 17.423665 1.626713 -8.100613 -3.607071 4.396351 6.736872 4.139241 6.567207 -4.133615 -24.790428 78.106737 -20.027832 -3.737877 -8.641565 -20.907089 14.799064 1.078576 -38.171257 -1.708017 -110.892910 4.864897 4.620210 -13.485633 -2.260078 -7.715840 -77.518632 -0.581288 12.461640 6.323619 0.420462 -5.165684 -1.350619 -7.379672 12.721933 -13.972324 -8.642090 18.103178 7.656383 -2.125640 -0.339843 -0.989273 -0.458052 -9.382856 6.579105 31.263008 22.510278 19.307102 -26.191209 3.612964 4.626979 7.322366 -11.310253 -5.784791 0.014996 0.152447 -0.056727
-18.223526 90.076753 -11.179009 178.116854 -18.412356 -2.275579 -4.381468 10.523352 0.957409 -1.962321 4.656816 0.478189 -1.962321 4.656816 0.478189 -1.474581 3.491123 0.373430 -4.087007 17.424528 1.644625 -8.106992 -3.603965 4.429367 6.712044 4.162027 6.567540 -3.986201 -24.785225 78.163729 -20.146879 -3.767270 -8.714201 -20.901294 14.800211 0.857112 -38.019404 -1.728404 -110.609019 4.800566 4.606890 -13.492537 -2.140156 -7.755637 -77.527793 -0.539145 12.530408 6.358818 0.442880 -5.161091 -1.367926 -7.417009 12.754831 -14.117710 -8.607704 18.056099 7.617782 -1.972730 -0.219709 -0.881024 -0.464966 -9.409866 6.576830 31.119325 22.595800 19.127120 -26.105835 3.772176 4.559516 7.535429 -11.338962 -5.673519 0.014805 0.124444 -0.029646
-18.408201 90.066608 -11.204956 177.920186 -18.445906 -2.238305 -4.336120 10.569587 0.954006 -1.940846 4.676771 0.484907 -1.940846 4.676771 0.484907 -1.458544 3.506084 0.378364 -4.084950 17.434952 1.653415 -8.105505 -3.584065 4.444088 6.696066 4.192812 6.556238 -3.624216 -24.701922 78.174647 -20.271263 -3.912930 -8.790853 -20.882714 14.778277 0.634969 -37.826464 -1.721722 -110.126273 4.753698 4.637248 -13.505069 -2.098158 -7.797212 -77.517772 -0.592935 12.570471 6.349076 0.445037 -5.159440 -1.380802 -7.484174 12.739096 -14.292495 -8.549443 17.998414 7.592901 -1.772272 -0.076703 -0.772251 -0.485046 -9.455026 6.569526 30.996745 22.657338 18.905548 -26.017197 3.909504 4.511693 7.638252 -11.364615 -5.548512 0.012272 0.092558 -0.001657
-18.598277 90.050954 -11.228246 177.730619 -18.441019 -2.208509 -4.298855 10.598626 0.968089 -1.923931 4.684208 0.491319 -1.923931 4.684208 0.491319 -1.445918 3.511654 0.383064 -4.079359 17.456054 1.651680 -8.093246 -3.545520 4.437415 6.722510 4.259204 6.533182 -3.427302 -24.622685 78.217493 -20.353358 -3.948556 -8.881573 -20.810652 14.725240 0.406707 -37.651238 -1.660724 -109.613301 4.747870 4.627877 -13.522995 -2.147266 -7.738168 -77.479941 -0.764467 12.560227 6.300748 0.445998 -5.163736 -1.393698 -7.587146 12.688725 -14.467977 -8.471260 17.918990 7.568183 -1.569014 0.038475 -0.670145 -0.493539 -9.460330 6.570966 30.880488 22.677965 18.668224 -25.951839 4.047919 4.469431 7.822878 -11.407889 -5.443217 0.011153 0.089415 0.024196
-18.793763 90.036186 -11.248117 177.558576 -18.487771 -2.192703 -4.270645 10.641963 0.990950 -1.912788 4.698968 0.493530 -1.912788 4.698968 0.493530 -1.437589 3.522726 0.384680 -4.071957 17.485081 1.645369 -8.075596 -3.492800 4.421109 6.765724 4.305851 6.522871 -3.562827 -24.576956 78.277460 -20.410627 -3.781685 -8.927092 -20.715921 14.675259 0.185748 -37.500336 -1.597004 -109.338238 4.770750 4.602986 -13.535965 -2.208544 -7.652596 -77.459647 -0.995108 12.548789 6.253936 0.444296 -5.162548 -1.390209 -7.678072 12.690102 -14.630808 -8.412648 17.839423 7.527861 -1.399077 0.133507 -0.560384 -0.485356 -9.439772 6.577815 30.759313 22.730205 18.461252 -25.898512 4.195456 4.420355 8.024695 -11.466304 -5.333928 0.009847 0.103422 0.045484
-19.001909 90.026516 -11.269837 177.390928 -18.564828 -2.146632 -4.256728 10.687459 0.977986 -1.905487 4.721997 0.493684 -1.905487 4.721997 0.493684 -1.432128 3.540004 0.384810 -4.062705 17.511234 1.632601 -8.052550 -3.446078 4.392513 6.775984 4.368664 6.504829 -3.686361 -24.601192 78.343671 -20.520501 -3.577502 -8.971320 -20.646469 14.637696 0.019796 -37.307560 -1.601424 -109.233818 4.806607 4.593713 -13.552303 -2.173143 -7.633966 -77.459375 -1.238244 12.627668 6.203010 0.430006 -5.168167 -1.360320 -7.789913 12.725381 -14.829018 -8.342735 17.734411 7.474550 -1.198108 0.307622 -0.427143 -0.497926 -9.486499 6.572361 30.645907 22.816943 18.243729 -25.859419 4.342531 4.370232 8.267196 -11.472540 -5.234075 0.011736 0.074437 0.065669
-19.212708 90.016049 -11.284714 177.184326 -18.586472 -2.113171 -4.218480 10.716862 0.982996 -1.889169 4.737517 0.495569 -1.889169 4.737517 0.495569 -1.419918 3.551650 0.386143 -4.058386 17.523039 1.616092 -8.038259 -3.425884 4.359764 6.745634 4.398476 6.507374 -3.579921 -24.625952 78.426716 -20.694660 -3.504968 -9.094755 -20.548054 14.558900 -0.109872 -37.111723 -1.588652 -109.073750 4.813315 4.622292 -13.561977 -2.060178 -7.705962 -77.459634 -1.504003 12.732759 6.124924 0.409302 -5.173167 -1.289838 -7.812144 12.698097 -14.981932 -8.300550 17.645493 7.416899 -1.023271 0.454319 -0.295765 -0.498338 -9.504608 6.573427 30.594540 22.835431 18.029173 -25.831887 4.481465 4.315960 8.362792 -11.515715 -5.093307 0.009413 0.068597 0.076809
